<svg width="150" height="50" viewBox="0 0 150 50" fill="none" xmlns="http://www.w3.org/2000/svg">
<path d="M0 5C0 2.23858 2.23858 0 5 0H145C147.761 0 150 2.23858 150 5V45C150 47.7614 147.761 50 145 50H5C2.23858 50 0 47.7614 0 45V5Z" fill="#2A3342"/>
<path fill-rule="evenodd" clip-rule="evenodd" d="M53.8621 32.8876H47.9344L46.5109 37.1746H44.0001L49.6148 21.3139H52.2233L57.838 37.1746H55.2844L53.8621 32.8876ZM48.5483 30.9094H53.247L50.9307 23.952H50.8659L48.5483 30.9094ZM69.9638 31.3933C69.9638 34.9868 68.0779 37.2955 65.2321 37.2955C63.7611 37.374 62.3755 36.5882 61.6647 35.2724H61.6108V41H59.2835V25.6109H61.5363V27.5342H61.5791C62.3215 26.2266 63.7086 25.4412 65.1893 25.4899C68.0669 25.4899 69.9638 27.8099 69.9638 31.3933ZM67.5716 31.3933C67.5716 29.0522 66.3853 27.513 64.5754 27.513C62.7972 27.513 61.6011 29.0846 61.6011 31.3933C61.6011 33.7233 62.7972 35.2837 64.5754 35.2837C66.3854 35.2837 67.5716 33.7557 67.5716 31.3933ZM82.443 31.3933C82.443 34.9868 80.5571 37.2955 77.7113 37.2955C76.2403 37.374 74.8547 36.5882 74.1439 35.2724H74.09V41H71.7627V25.6109H74.0154V27.5342H74.0582C74.8006 26.2266 76.1877 25.4412 77.6684 25.4899C80.5461 25.4899 82.443 27.8099 82.443 31.3933ZM80.0508 31.3933C80.0508 29.0522 78.8645 27.513 77.0545 27.513C75.2763 27.513 74.0803 29.0846 74.0803 31.3933C74.0803 33.7233 75.2763 35.2837 77.0545 35.2837C78.8645 35.2837 80.0508 33.7557 80.0508 31.3933ZM90.6907 32.7554C90.8631 34.3282 92.3613 35.3609 94.4085 35.3609C96.3702 35.3609 97.7815 34.3282 97.7815 32.91C97.7815 31.6789 96.9303 30.9418 94.9148 30.4366L92.8994 29.9414C90.0437 29.238 88.718 27.8759 88.718 25.6657C88.718 22.9291 91.0564 21.0494 94.3767 21.0494C97.6628 21.0494 99.9155 22.9291 99.9914 25.6657H97.642C97.5014 24.0829 96.2185 23.1275 94.3437 23.1275C92.4688 23.1275 91.186 24.0941 91.186 25.5011C91.186 26.6224 92.0053 27.2822 94.0098 27.7873L95.7232 28.2164C98.9139 28.986 100.24 30.2932 100.24 32.6131C100.24 35.5804 97.9221 37.4389 94.236 37.4389C90.7873 37.4389 88.4587 35.6241 88.3083 32.7553L90.6907 32.7554ZM105.262 22.8743V25.6109H107.418V27.4905H105.262V33.8655C105.262 34.8558 105.694 35.3173 106.642 35.3173C106.898 35.3128 107.153 35.2944 107.407 35.2624V37.1309C106.981 37.2121 106.548 37.2488 106.115 37.2406C103.819 37.2406 102.924 36.3613 102.924 34.1186V27.4905H101.275V25.6109H102.924V22.8743H105.262ZM108.667 31.3933C108.667 27.755 110.768 25.4687 114.045 25.4687C117.332 25.4687 119.423 27.7549 119.423 31.3933C119.423 35.0417 117.343 37.318 114.045 37.318C110.747 37.318 108.667 35.0417 108.667 31.3933ZM117.052 31.3933C117.052 28.8975 115.93 27.4245 114.045 27.4245C112.159 27.4245 111.039 28.9087 111.039 31.3933C111.039 33.8992 112.159 35.361 114.045 35.361C115.93 35.361 117.052 33.8992 117.052 31.3933ZM121.342 25.6109H123.562V27.5791H123.616C123.925 26.3121 125.063 25.44 126.343 25.4899C126.611 25.4889 126.878 25.5186 127.14 25.5784V27.7986C126.802 27.6931 126.448 27.6446 126.094 27.6552C125.41 27.6269 124.748 27.905 124.282 28.4165C123.816 28.928 123.592 29.6217 123.669 30.3157V37.1745H121.342L121.342 25.6109ZM137.87 33.7782C137.557 35.8774 135.553 37.318 132.988 37.318C129.69 37.318 127.643 35.0641 127.643 31.4482C127.643 27.8211 129.701 25.4687 132.891 25.4687C136.027 25.4687 138 27.6664 138 31.1726V31.9858H129.992V32.1292C129.917 32.9901 130.209 33.8423 130.792 34.469C131.376 35.0956 132.195 35.4364 133.042 35.4046C134.172 35.5126 135.236 34.8511 135.661 33.7782L137.87 33.7782ZM130.003 30.3269L135.672 30.3269C135.714 29.5533 135.438 28.7969 134.91 28.2397C134.382 27.6826 133.65 27.3754 132.891 27.392C132.125 27.3874 131.389 27.6947 130.847 28.2459C130.305 28.797 130.001 29.5462 130.003 30.3269ZM48.2566 9.37551C49.2447 9.30319 50.2124 9.68657 50.8935 10.4201C51.5746 11.1537 51.8973 12.1601 51.7727 13.1623C51.7727 15.597 50.4825 16.9965 48.2566 16.9965H45.5575V9.37551H48.2566ZM46.7181 15.9188H48.127C48.8331 15.9618 49.5206 15.6781 49.9987 15.1464C50.4767 14.6146 50.6944 13.8915 50.5913 13.1778C50.6869 12.4671 50.4661 11.7499 49.9892 11.2226C49.5123 10.6952 48.8293 10.4127 48.127 10.4525H46.7181V15.9188ZM53.0837 14.1183C52.987 13.0874 53.4717 12.0898 54.3344 11.5437C55.1972 10.9977 56.2889 10.9977 57.1517 11.5437C58.0144 12.0898 58.4991 13.0874 58.4024 14.1183C58.5009 15.1503 58.0167 16.1499 57.1532 16.6971C56.2897 17.2443 55.1965 17.2443 54.3329 16.6971C53.4694 16.1499 52.9852 15.1503 53.0837 14.1183ZM57.2577 14.1183C57.2577 12.8716 56.7086 12.1426 55.7449 12.1426C54.7775 12.1426 54.2333 12.8716 54.2333 14.1183C54.2333 15.375 54.7776 16.0984 55.7449 16.0984C56.7086 16.0984 57.2577 15.37 57.2577 14.1183ZM65.4724 16.9964H64.3179L63.1524 12.7606H63.0644L61.9038 16.9964H60.7603L59.2059 11.2451H60.3347L61.3449 15.6337H61.4281L62.5874 11.2451H63.6551L64.8145 15.6337H64.9025L65.9078 11.2451H67.0207L65.4724 16.9964ZM68.328 11.2451H69.3994V12.1588H69.4825C69.7717 11.4861 70.4475 11.0746 71.1653 11.1341C71.7211 11.0915 72.2658 11.309 72.6455 11.7251C73.0252 12.1412 73.1988 12.7109 73.1172 13.2732V16.9964H72.0043V13.5583C72.0043 12.634 71.6105 12.1744 70.7874 12.1744C70.4104 12.1565 70.0446 12.3074 69.7858 12.5875C69.527 12.8676 69.401 13.2491 69.4409 13.6318V16.9964H68.328L68.328 11.2451ZM74.8905 9H76.0034V16.9964H74.8905V9ZM77.5505 14.1183C77.4538 13.0874 77.9386 12.0897 78.8014 11.5436C79.6642 10.9976 80.756 10.9976 81.6188 11.5436C82.4817 12.0897 82.9664 13.0874 82.8698 14.1183C82.9682 15.1503 82.4839 16.1499 81.6203 16.6971C80.7567 17.2443 79.6635 17.2443 78.7999 16.6971C77.9364 16.1499 77.452 15.1503 77.5505 14.1183ZM81.7245 14.1183C81.7245 12.8716 81.1753 12.1426 80.2116 12.1426C79.2443 12.1426 78.7001 12.8716 78.7001 14.1183C78.7001 15.375 79.2443 16.0984 80.2116 16.0984C81.1753 16.0984 81.7245 15.37 81.7245 14.1183ZM84.0414 15.37C84.0414 14.3347 84.7972 13.7379 86.1388 13.6531L87.6663 13.5633V13.0668C87.6663 12.4594 87.2725 12.1164 86.5118 12.1164C85.8905 12.1164 85.46 12.349 85.3365 12.7556H84.2591C84.3728 11.7678 85.2839 11.1342 86.5632 11.1342C87.9769 11.1342 88.7743 11.852 88.7743 13.0668V16.9964H87.703V16.1882H87.6149C87.2511 16.7784 86.604 17.1234 85.9211 17.0912C85.4424 17.142 84.9649 16.9839 84.6068 16.6559C84.2487 16.328 84.0433 15.8608 84.0414 15.37ZM87.6663 14.8785V14.3977L86.2892 14.4875C85.5126 14.5405 85.1604 14.8099 85.1604 15.3169C85.1604 15.8346 85.6007 16.1358 86.2061 16.1358C86.5645 16.1728 86.9223 16.0599 87.1975 15.8229C87.4728 15.5859 87.6419 15.2451 87.6663 14.8785ZM90.237 14.1183C90.237 12.301 91.153 11.1497 92.5777 11.1497C93.2971 11.1159 93.971 11.5091 94.307 12.1587H94.3902V9H95.5031V16.9964H94.4366V16.0878H94.3486C93.9872 16.732 93.305 17.1185 92.5777 17.0912C91.1432 17.0913 90.237 15.94 90.237 14.1183ZM91.3866 14.1183C91.3866 15.3382 91.9504 16.0722 92.8933 16.0722C93.8313 16.0722 94.411 15.3276 94.411 14.1233C94.411 12.9246 93.8252 12.1694 92.8933 12.1694C91.9565 12.1694 91.3866 12.9084 91.3866 14.1183ZM100.108 14.1183C100.011 13.0874 100.496 12.0898 101.358 11.5437C102.221 10.9977 103.313 10.9977 104.176 11.5437C105.038 12.0898 105.523 13.0874 105.426 14.1183C105.525 15.1503 105.041 16.1499 104.177 16.6971C103.313 17.2443 102.22 17.2443 101.357 16.6971C100.493 16.1499 100.009 15.1503 100.108 14.1183ZM104.282 14.1183C104.282 12.8716 103.732 12.1426 102.769 12.1426C101.801 12.1426 101.257 12.8716 101.257 14.1183C101.257 15.375 101.801 16.0984 102.769 16.0984C103.732 16.0984 104.282 15.37 104.282 14.1183ZM106.92 11.2451H107.991V12.1588H108.074C108.363 11.4861 109.039 11.0746 109.757 11.1341C110.313 11.0915 110.857 11.309 111.237 11.7251C111.617 12.1412 111.79 12.7109 111.709 13.2732V16.9964H110.596V13.5583C110.596 12.634 110.202 12.1744 109.379 12.1744C109.002 12.1565 108.636 12.3074 108.377 12.5875C108.118 12.8676 107.992 13.2491 108.032 13.6318V16.9964H106.92V11.2451ZM117.997 9.81325V11.2713H119.219V12.2274H117.997V15.1847C117.997 15.7872 118.241 16.051 118.795 16.051C118.936 16.0505 119.078 16.0418 119.219 16.0248V16.9702C119.019 17.0067 118.817 17.0261 118.614 17.0282C117.376 17.0282 116.883 16.5842 116.883 15.4753V12.2273H115.988V11.2713H116.883V9.81325H117.997ZM120.739 9H121.842V12.1694H121.93C122.233 11.4908 122.921 11.0788 123.65 11.1391C124.202 11.1084 124.74 11.3307 125.115 11.7453C125.491 12.16 125.665 12.7238 125.592 13.2832V16.9964H124.478V13.5632C124.478 12.6446 124.058 12.1793 123.272 12.1793C122.885 12.147 122.503 12.2905 122.23 12.5716C121.956 12.8528 121.818 13.2428 121.852 13.6374V16.9964H120.739L120.739 9ZM132.081 15.4435C131.769 16.5284 130.739 17.2293 129.637 17.1074C128.885 17.1277 128.163 16.8098 127.661 16.2381C127.16 15.6665 126.93 14.8988 127.032 14.1389C126.932 13.3768 127.161 12.6079 127.66 12.0314C128.159 11.455 128.879 11.1276 129.633 11.1341C131.202 11.1341 132.148 12.2274 132.148 14.0335V14.4295H128.166V14.4931C128.131 14.9199 128.274 15.342 128.56 15.6557C128.846 15.9694 129.248 16.1455 129.668 16.1407C130.212 16.2074 130.742 15.932 131.01 15.4435L132.081 15.4435ZM128.166 13.5901H131.014C131.043 13.1997 130.908 12.8154 130.644 12.5316C130.38 12.2479 130.01 12.0912 129.626 12.1002C129.238 12.0952 128.863 12.2506 128.588 12.5311C128.313 12.8116 128.161 13.1935 128.166 13.5901ZM31.3137 25.1667C31.3166 27.8461 32.9256 30.2643 35.4001 31.308C34.9242 32.8499 34.2068 34.3069 33.2746 35.6253C32.0226 37.493 30.7099 39.3178 28.6265 39.3515C26.602 39.3981 25.9217 38.1633 23.5997 38.1633C21.256 38.1633 20.5308 39.3178 18.5892 39.3981C16.605 39.4714 15.0886 37.4046 13.7911 35.5544C11.1978 31.7759 9.17843 24.9059 11.8857 20.2314C13.157 17.9531 15.534 16.5074 18.147 16.4232C20.1329 16.3825 21.9772 17.7608 23.1982 17.7608C24.3961 17.7608 26.6749 16.112 29.0255 16.358C31.2598 16.4278 33.3303 17.5441 34.6124 19.3702C32.5893 20.6107 31.3443 22.7983 31.3137 25.1667ZM27.4899 13.873C26.3878 15.2401 24.7178 16.0275 22.959 16.0095C22.8471 14.2954 23.4231 12.6072 24.56 11.3169C25.7113 10.009 27.3145 9.18179 29.05 9C29.1855 10.7649 28.6259 12.513 27.4899 13.873Z" fill="#F1F5FB"/>
</svg>
