<svg width="24" height="24" viewBox="0 0 24 24" fill="none" xmlns="http://www.w3.org/2000/svg">
<path d="M21.7099 7.28994C21.617 7.19621 21.5064 7.12182 21.3845 7.07105C21.2627 7.02028 21.132 6.99414 20.9999 6.99414C20.8679 6.99414 20.7372 7.02028 20.6154 7.07105C20.4935 7.12182 20.3829 7.19621 20.2899 7.28994L13.9999 13.5899L9.70994 9.28994C9.61698 9.19621 9.50637 9.12182 9.38452 9.07105C9.26266 9.02028 9.13195 8.99414 8.99994 8.99414C8.86793 8.99414 8.73722 9.02028 8.61536 9.07105C8.4935 9.12182 8.3829 9.19621 8.28994 9.28994L2.28994 15.2899C2.19621 15.3829 2.12182 15.4935 2.07105 15.6154C2.02028 15.7372 1.99414 15.8679 1.99414 15.9999C1.99414 16.132 2.02028 16.2627 2.07105 16.3845C2.12182 16.5064 2.19621 16.617 2.28994 16.7099C2.3829 16.8037 2.4935 16.8781 2.61536 16.9288C2.73722 16.9796 2.86793 17.0057 2.99994 17.0057C3.13195 17.0057 3.26266 16.9796 3.38452 16.9288C3.50637 16.8781 3.61698 16.8037 3.70994 16.7099L8.99994 11.4099L13.2899 15.7099C13.3829 15.8037 13.4935 15.8781 13.6154 15.9288C13.7372 15.9796 13.8679 16.0057 13.9999 16.0057C14.132 16.0057 14.2627 15.9796 14.3845 15.9288C14.5064 15.8781 14.617 15.8037 14.7099 15.7099L21.7099 8.70994C21.8037 8.61698 21.8781 8.50638 21.9288 8.38452C21.9796 8.26266 22.0057 8.13195 22.0057 7.99994C22.0057 7.86793 21.9796 7.73722 21.9288 7.61536C21.8781 7.4935 21.8037 7.3829 21.7099 7.28994Z" fill="white"/>
</svg>
