<svg width="102" height="24" viewBox="0 0 102 24" fill="none" xmlns="http://www.w3.org/2000/svg">
<g clip-path="url(#clip0_617_22911)">
<path fill-rule="evenodd" clip-rule="evenodd" d="M2.46876 22.4669L4.57331 21.2602L5.41828 20.7754L6.24784 20.2971L7.54944 19.5512L9.61662 18.3709L11.6859 19.5512L12.9854 20.2971L13.8148 20.7754L14.6621 21.2602L16.7226 22.4493L17.3491 22.8047L17.9602 23.1536L19.2001 23.8644V12.4429L16.7226 11.019V19.6214L15.0459 18.656L12.575 17.2432L11.6329 16.6947L10.8565 16.2559V2.07227H8.3789V16.5938L6.65816 17.5832L4.1895 19.0071L2.46876 19.9878V11.0366L0 12.4517V23.8819L1.23104 23.1711L1.84882 22.8223L2.46876 22.4669ZM15.0437 16.6859V-0.490234H12.5728V15.2731L15.0437 16.6859ZM6.66042 15.6021V4.63257H4.19166V17.026L6.66042 15.6021Z" fill="#BBC3CF"/>
</g>
<path d="M29.6675 17.0998H31.8254L33.8146 10.2526H33.8965L35.8908 17.0998H38.0487L41.0453 6.62707H38.6266L36.8931 13.9191H36.801L34.8936 6.62707H32.8226L30.9101 13.9038H30.8232L29.0896 6.62707H26.6709L29.6675 17.0998Z" fill="#BBC3CF"/>
<path d="M42.2304 17.0998H49.3077V15.2742H44.4446V12.7737H48.9242V10.9481H44.4446V8.45264H49.2872V6.62707H42.2304V17.0998Z" fill="#BBC3CF"/>
<path d="M51.0476 17.0998H57.7516V15.2742H53.2618V6.62707H51.0476V17.0998Z" fill="#BBC3CF"/>
<path d="M57.2683 6.62707L61.0882 13.3975V17.0998H63.2871V13.3975L67.107 6.62707H64.6269L62.2388 11.1373H62.1365L59.7485 6.62707H57.2683Z" fill="#BBC3CF"/>
<path d="M68.5784 8.45264H71.7847V17.0998H73.9733V8.45264H77.1796V6.62707H68.5784V8.45264Z" fill="#BBC3CF"/>
<path d="M80.8102 6.62707H78.596V17.0998H80.8102V6.62707Z" fill="#BBC3CF"/>
<path d="M91.8723 10.2935C91.5808 7.8748 89.7502 6.48389 87.3263 6.48389C84.5598 6.48389 82.4479 8.4373 82.4479 11.8634C82.4479 15.2793 84.524 17.243 87.3263 17.243C90.011 17.243 91.632 15.4583 91.8723 13.5305L89.6325 13.5203C89.4229 14.6401 88.5433 15.2845 87.3621 15.2845C85.7717 15.2845 84.6928 14.1032 84.6928 11.8634C84.6928 9.68502 85.7564 8.44241 87.3774 8.44241C88.5894 8.44241 89.4638 9.14298 89.6325 10.2935H91.8723Z" fill="#BBC3CF"/>
<path d="M99.1413 9.639H101.264C101.233 7.77252 99.6987 6.48389 97.3669 6.48389C95.0709 6.48389 93.3885 7.75207 93.3987 9.65434C93.3936 11.1987 94.4828 12.0833 96.2521 12.5078L97.3925 12.7941C98.5328 13.0703 99.1669 13.3975 99.172 14.1032C99.1669 14.8702 98.4408 15.3918 97.3158 15.3918C96.1652 15.3918 95.3368 14.86 95.2652 13.8117H93.1226C93.1788 16.0771 94.7999 17.2481 97.3413 17.2481C99.8982 17.2481 101.402 16.0259 101.407 14.1083C101.402 12.3646 100.087 11.439 98.2669 11.0299L97.326 10.8049C96.4158 10.5953 95.6538 10.2578 95.6692 9.50605C95.6692 8.83105 96.2675 8.33502 97.3516 8.33502C98.4101 8.33502 99.0595 8.8157 99.1413 9.639Z" fill="#BBC3CF"/>
<defs>
<clipPath id="clip0_617_22911">
<rect width="19.2" height="24" fill="white"/>
</clipPath>
</defs>
</svg>
