<svg width="40" height="40" viewBox="0 0 40 40" fill="none" xmlns="http://www.w3.org/2000/svg">
<path d="M18.2826 12.4326C23.7569 14.3647 29.6607 14.2574 35.0814 12.1642C35.135 9.96374 34.5447 7.76325 33.5249 5.77745L32.9882 4.70404C32.8272 4.75771 32.6125 4.86506 32.5052 4.9724C27.5675 7.33389 21.9858 7.65592 16.7798 5.77745C13.1302 4.48937 9.15859 4.81138 5.72369 6.52884L4.65028 7.06554C4.70395 7.22655 4.81131 7.44122 4.91865 7.54856C5.56269 8.94399 6.09939 10.4468 6.47508 12.0032C10.232 10.9298 14.4183 11.0371 18.2826 12.4326Z" fill="white"/>
<path d="M4.91884 28.5873L6.09958 27.9432C8.49205 26.747 11.1314 26.1679 13.7502 26.2443C15.3611 26.2913 16.9643 26.5862 18.4974 27.1382C18.9968 27.3154 19.4979 27.4781 20.0002 27.6264V33.3472C17.9222 32.9608 15.8186 32.9056 13.7502 33.1719C11.6045 33.4481 9.49685 34.0703 7.49501 35.0277C7.38767 35.135 7.17298 35.2424 7.01197 35.2961L6.47527 34.2227C5.56287 32.4515 5.02618 30.5194 4.91884 28.5873Z" fill="white"/>
<path d="M5.56234 23.6497C10.1243 21.7712 15.223 21.6102 19.8923 23.274C24.186 24.7767 28.7479 25.0451 33.0416 24.079C32.9879 21.6639 33.3099 19.3023 34.1686 16.9409C28.5333 18.6046 22.4685 18.4436 16.8331 16.4578C13.6129 15.2771 10.0706 15.2771 6.85043 16.3505C6.9041 18.6583 6.47475 21.0198 5.6697 23.3276C5.6697 23.3276 5.61601 23.4887 5.56234 23.6497Z" fill="white"/>
</svg>
