<svg width="32" height="32" viewBox="0 0 32 32" fill="none" xmlns="http://www.w3.org/2000/svg">
<path d="M4.00002 12H28C28.3536 12 28.6928 11.8595 28.9428 11.6095C29.1929 11.3594 29.3334 11.0203 29.3334 10.6667C29.3334 10.3131 29.1929 9.97392 28.9428 9.72387C28.6928 9.47382 28.3536 9.33334 28 9.33334H4.00002C3.6464 9.33334 3.30726 9.47382 3.05721 9.72387C2.80716 9.97392 2.66669 10.3131 2.66669 10.6667C2.66669 11.0203 2.80716 11.3594 3.05721 11.6095C3.30726 11.8595 3.6464 12 4.00002 12ZM28 14.6667H4.00002C3.6464 14.6667 3.30726 14.8072 3.05721 15.0572C2.80716 15.3072 2.66669 15.6464 2.66669 16C2.66669 16.3536 2.80716 16.6928 3.05721 16.9428C3.30726 17.1929 3.6464 17.3333 4.00002 17.3333H28C28.3536 17.3333 28.6928 17.1929 28.9428 16.9428C29.1929 16.6928 29.3334 16.3536 29.3334 16C29.3334 15.6464 29.1929 15.3072 28.9428 15.0572C28.6928 14.8072 28.3536 14.6667 28 14.6667ZM28 20H4.00002C3.6464 20 3.30726 20.1405 3.05721 20.3905C2.80716 20.6406 2.66669 20.9797 2.66669 21.3333C2.66669 21.687 2.80716 22.0261 3.05721 22.2762C3.30726 22.5262 3.6464 22.6667 4.00002 22.6667H28C28.3536 22.6667 28.6928 22.5262 28.9428 22.2762C29.1929 22.0261 29.3334 21.687 29.3334 21.3333C29.3334 20.9797 29.1929 20.6406 28.9428 20.3905C28.6928 20.1405 28.3536 20 28 20Z" fill="#556987"/>
</svg>
