<svg width="149" height="91" viewBox="0 0 149 91" fill="none" xmlns="http://www.w3.org/2000/svg">
<g clip-path="url(#clip0_2485_16386)">
<path d="M146.25 90.9099C147.708 90.9099 148.89 89.7279 148.89 88.2699C148.89 86.8119 147.708 85.6299 146.25 85.6299C144.792 85.6299 143.61 86.8119 143.61 88.2699C143.61 89.7279 144.792 90.9099 146.25 90.9099Z" fill="#3B82F6"/>
<path d="M122.31 90.9099C123.768 90.9099 124.95 89.7279 124.95 88.2699C124.95 86.8119 123.768 85.6299 122.31 85.6299C120.852 85.6299 119.67 86.8119 119.67 88.2699C119.67 89.7279 120.852 90.9099 122.31 90.9099Z" fill="#3B82F6"/>
<path d="M98.3798 90.9104C98.9043 90.9123 99.4176 90.7586 99.8547 90.4686C100.292 90.1787 100.633 89.7654 100.835 89.2814C101.037 88.7973 101.091 88.2642 100.99 87.7495C100.889 87.2348 100.637 86.7617 100.267 86.3901C99.897 86.0185 99.4248 85.7651 98.9105 85.662C98.3962 85.5589 97.8629 85.6108 97.3781 85.8111C96.8932 86.0114 96.4788 86.3511 96.1871 86.7871C95.8955 87.2231 95.7397 87.7358 95.7397 88.2603C95.7397 88.9614 96.0176 89.6339 96.5125 90.1306C97.0073 90.6273 97.6787 90.9077 98.3798 90.9104Z" fill="#3B82F6"/>
<path d="M74.4498 90.9104C74.9739 90.9104 75.4863 90.7549 75.9221 90.4638C76.3579 90.1726 76.6975 89.7587 76.8981 89.2745C77.0986 88.7903 77.1511 88.2574 77.0488 87.7434C76.9466 87.2293 76.6942 86.7572 76.3236 86.3865C75.953 86.0159 75.4808 85.7635 74.9668 85.6613C74.4527 85.559 73.9199 85.6115 73.4357 85.8121C72.9514 86.0127 72.5376 86.3523 72.2465 86.7881C71.9553 87.2239 71.7998 87.7362 71.7998 88.2603C71.7998 88.6083 71.8683 88.953 72.0015 89.2745C72.1346 89.596 72.3299 89.8881 72.5759 90.1342C72.822 90.3802 73.1142 90.5755 73.4357 90.7087C73.7572 90.8419 74.1018 90.9104 74.4498 90.9104Z" fill="#3B82F6"/>
<path d="M50.5101 90.9099C51.9681 90.9099 53.1501 89.7279 53.1501 88.2699C53.1501 86.8119 51.9681 85.6299 50.5101 85.6299C49.0521 85.6299 47.8701 86.8119 47.8701 88.2699C47.8701 89.7279 49.0521 90.9099 50.5101 90.9099Z" fill="#3B82F6"/>
<path d="M27.5901 90.5952C28.9386 90.0408 29.5823 88.4982 29.0279 87.1497C28.4735 85.8012 26.9308 85.1575 25.5823 85.7119C24.2338 86.2664 23.5901 87.809 24.1445 89.1575C24.6989 90.506 26.2416 91.1497 27.5901 90.5952Z" fill="#3B82F6"/>
<path d="M2.65017 85.6602C2.1252 85.6582 1.61153 85.8122 1.17421 86.1026C0.736895 86.393 0.395678 86.8068 0.193868 87.2915C-0.00794293 87.7761 -0.0612624 88.3097 0.0406694 88.8247C0.142601 89.3397 0.395167 89.8128 0.766377 90.184C1.13759 90.5552 1.61065 90.8078 2.12563 90.9097C2.64061 91.0116 3.17433 90.9583 3.65896 90.7565C4.14359 90.5547 4.55737 90.2135 4.8478 89.7762C5.13822 89.3389 5.29216 88.8252 5.29018 88.3002C5.28755 87.6008 5.00858 86.9308 4.51406 86.4363C4.01953 85.9418 3.34953 85.6628 2.65017 85.6602Z" fill="#3B82F6"/>
<path d="M146.25 69.4997C147.708 69.4997 148.89 68.3178 148.89 66.8597C148.89 65.4017 147.708 64.2197 146.25 64.2197C144.792 64.2197 143.61 65.4017 143.61 66.8597C143.61 68.3178 144.792 69.4997 146.25 69.4997Z" fill="#3B82F6"/>
<path d="M122.31 69.4997C123.768 69.4997 124.95 68.3178 124.95 66.8597C124.95 65.4017 123.768 64.2197 122.31 64.2197C120.852 64.2197 119.67 65.4017 119.67 66.8597C119.67 68.3178 120.852 69.4997 122.31 69.4997Z" fill="#3B82F6"/>
<path d="M98.3798 69.5002C98.9047 69.5022 99.4185 69.3482 99.8559 69.0578C100.293 68.7673 100.634 68.3535 100.836 67.8689C101.038 67.3843 101.091 66.8506 100.989 66.3357C100.887 65.8207 100.635 65.3475 100.264 64.9763C99.8925 64.6051 99.4193 64.3526 98.9043 64.2506C98.3893 64.1487 97.8557 64.202 97.3711 64.4038C96.8865 64.6056 96.4727 64.9469 96.1823 65.3842C95.8918 65.8215 95.7378 66.3352 95.7398 66.8602C95.7424 67.5595 96.0215 68.2295 96.516 68.724C97.0105 69.2185 97.6804 69.4976 98.3798 69.5002Z" fill="#3B82F6"/>
<path d="M74.4498 69.5002C74.9744 69.5002 75.4871 69.3445 75.9231 69.0529C76.3591 68.7612 76.6988 68.3468 76.8991 67.862C77.0993 67.3772 77.1512 66.8438 77.0481 66.3295C76.9451 65.8152 76.6917 65.343 76.3201 64.9728C75.9485 64.6026 75.4753 64.351 74.9606 64.2499C74.4459 64.1488 73.9128 64.2027 73.4287 64.4048C72.9447 64.6069 72.5316 64.9481 72.2416 65.3852C71.9516 65.8223 71.7978 66.3356 71.7998 66.8602C71.7998 67.2077 71.8684 67.5518 72.0017 67.8728C72.135 68.1937 72.3304 68.4852 72.5766 68.7305C72.8228 68.9758 73.115 69.17 73.4364 69.3021C73.7579 69.4342 74.1023 69.5015 74.4498 69.5002Z" fill="#3B82F6"/>
<path d="M50.5101 69.4997C51.9681 69.4997 53.1501 68.3178 53.1501 66.8597C53.1501 65.4017 51.9681 64.2197 50.5101 64.2197C49.0521 64.2197 47.8701 65.4017 47.8701 66.8597C47.8701 68.3178 49.0521 69.4997 50.5101 69.4997Z" fill="#3B82F6"/>
<path d="M27.5926 69.193C28.9411 68.6385 29.5848 67.0959 29.0304 65.7474C28.4759 64.3989 26.9333 63.7551 25.5848 64.3096C24.2363 64.864 23.5925 66.4067 24.147 67.7552C24.7014 69.1037 26.2441 69.7474 27.5926 69.193Z" fill="#3B82F6"/>
<path d="M2.65004 69.5002C3.17459 69.5002 3.68731 69.3445 4.12331 69.0529C4.55931 68.7612 4.89899 68.3468 5.09926 67.862C5.29954 67.3772 5.3515 66.8438 5.24843 66.3295C5.14537 65.8152 4.89189 65.343 4.52028 64.9728C4.14867 64.6026 3.67561 64.351 3.16091 64.2499C2.6462 64.1488 2.11309 64.2027 1.62905 64.4048C1.145 64.6069 0.731771 64.9481 0.441791 65.3852C0.151812 65.8223 -0.00196055 66.3356 1.88721e-05 66.8602C1.63788e-05 67.2077 0.0686259 67.5518 0.201923 67.8728C0.33522 68.1937 0.530667 68.4852 0.776874 68.7305C1.02308 68.9758 1.31528 69.17 1.63674 69.3021C1.95819 69.4342 2.30251 69.5015 2.65004 69.5002Z" fill="#3B82F6"/>
<path d="M146.25 48.0896C147.708 48.0896 148.89 46.9076 148.89 45.4496C148.89 43.9915 147.708 42.8096 146.25 42.8096C144.792 42.8096 143.61 43.9915 143.61 45.4496C143.61 46.9076 144.792 48.0896 146.25 48.0896Z" fill="#3B82F6"/>
<path d="M122.31 48.0896C123.768 48.0896 124.95 46.9076 124.95 45.4496C124.95 43.9915 123.768 42.8096 122.31 42.8096C120.852 42.8096 119.67 43.9915 119.67 45.4496C119.67 46.9076 120.852 48.0896 122.31 48.0896Z" fill="#3B82F6"/>
<path d="M98.3798 48.0998C98.9043 48.1018 99.4176 47.9481 99.8547 47.6581C100.292 47.3681 100.633 46.9549 100.835 46.4708C101.037 45.9868 101.091 45.4537 100.99 44.939C100.889 44.4243 100.637 43.9512 100.267 43.5795C99.897 43.2079 99.4248 42.9545 98.9105 42.8515C98.3962 42.7484 97.8629 42.8003 97.3781 43.0006C96.8932 43.2008 96.4788 43.5405 96.1871 43.9765C95.8955 44.4125 95.7397 44.9252 95.7397 45.4498C95.7397 46.1509 96.0176 46.8234 96.5125 47.3201C97.0073 47.8168 97.6787 48.0972 98.3798 48.0998Z" fill="#3B82F6"/>
<path d="M74.4498 48.0998C74.9739 48.0998 75.4863 47.9444 75.9221 47.6532C76.3579 47.362 76.6975 46.9482 76.8981 46.4639C77.0986 45.9797 77.1511 45.4469 77.0488 44.9328C76.9466 44.4188 76.6942 43.9465 76.3236 43.5759C75.953 43.2053 75.4808 42.953 74.9668 42.8507C74.4527 42.7485 73.9199 42.801 73.4357 43.0015C72.9514 43.2021 72.5376 43.5418 72.2465 43.9776C71.9553 44.4133 71.7998 44.9257 71.7998 45.4498C71.7998 45.7978 71.8683 46.1424 72.0015 46.4639C72.1346 46.7855 72.3299 47.0775 72.5759 47.3236C72.822 47.5697 73.1142 47.7649 73.4357 47.8981C73.7572 48.0313 74.1018 48.0998 74.4498 48.0998Z" fill="#3B82F6"/>
<path d="M50.5101 48.0896C51.9681 48.0896 53.1501 46.9076 53.1501 45.4496C53.1501 43.9915 51.9681 42.8096 50.5101 42.8096C49.0521 42.8096 47.8701 43.9915 47.8701 45.4496C47.8701 46.9076 49.0521 48.0896 50.5101 48.0896Z" fill="#3B82F6"/>
<path d="M27.5911 47.7915C28.9396 47.2371 29.5833 45.6944 29.0289 44.3459C28.4744 42.9974 26.9318 42.3538 25.5833 42.9082C24.2348 43.4626 23.591 45.0052 24.1455 46.3537C24.6999 47.7022 26.2426 48.346 27.5911 47.7915Z" fill="#3B82F6"/>
<path d="M2.65002 48.0998C3.17414 48.0998 3.68652 47.9444 4.12231 47.6532C4.5581 47.362 4.89769 46.9482 5.09827 46.4639C5.29884 45.9797 5.3514 45.4469 5.24915 44.9328C5.14689 44.4188 4.89454 43.9465 4.52393 43.5759C4.15332 43.2053 3.68104 42.953 3.16699 42.8507C2.65294 42.7485 2.12021 42.801 1.63599 43.0015C1.15176 43.2021 0.737841 43.5418 0.446655 43.9776C0.15547 44.4133 0 44.9257 0 45.4498C0 46.1526 0.279274 46.8266 0.776245 47.3236C1.27322 47.8206 1.9472 48.0998 2.65002 48.0998Z" fill="#3B82F6"/>
<path d="M146.25 26.6902C147.708 26.6902 148.89 25.5082 148.89 24.0502C148.89 22.5921 147.708 21.4102 146.25 21.4102C144.792 21.4102 143.61 22.5921 143.61 24.0502C143.61 25.5082 144.792 26.6902 146.25 26.6902Z" fill="#3B82F6"/>
<path d="M122.31 26.6902C123.768 26.6902 124.95 25.5082 124.95 24.0502C124.95 22.5921 123.768 21.4102 122.31 21.4102C120.852 21.4102 119.67 22.5921 119.67 24.0502C119.67 25.5082 120.852 26.6902 122.31 26.6902Z" fill="#3B82F6"/>
<path d="M98.3798 26.6604C98.9047 26.6623 99.4185 26.5083 99.8559 26.2179C100.293 25.9275 100.634 25.5137 100.836 25.0291C101.038 24.5444 101.091 24.0108 100.989 23.4958C100.887 22.9808 100.635 22.5078 100.264 22.1366C99.8925 21.7653 99.4193 21.5127 98.9043 21.4108C98.3893 21.3089 97.8557 21.3622 97.3711 21.564C96.8865 21.7658 96.4727 22.107 96.1823 22.5443C95.8918 22.9817 95.7378 23.4954 95.7398 24.0203C95.7424 24.7197 96.0215 25.3897 96.516 25.8842C97.0105 26.3788 97.6804 26.6577 98.3798 26.6604Z" fill="#3B82F6"/>
<path d="M74.4498 26.6604C74.9744 26.6604 75.4871 26.5047 75.9231 26.213C76.3591 25.9214 76.6988 25.507 76.8991 25.0222C77.0993 24.5374 77.1512 24.004 77.0481 23.4897C76.9451 22.9754 76.6917 22.5032 76.3201 22.133C75.9485 21.7628 75.4753 21.5112 74.9606 21.4101C74.4459 21.3089 73.9128 21.3629 73.4287 21.565C72.9447 21.7671 72.5316 22.1083 72.2416 22.5454C71.9516 22.9825 71.7978 23.4958 71.7998 24.0203C71.7998 24.3679 71.8684 24.712 72.0017 25.033C72.135 25.3539 72.3304 25.6454 72.5766 25.8906C72.8228 26.1359 73.115 26.3302 73.4364 26.4623C73.7579 26.5944 74.1023 26.6617 74.4498 26.6604Z" fill="#3B82F6"/>
<path d="M50.5101 26.6902C51.9681 26.6902 53.1501 25.5082 53.1501 24.0502C53.1501 22.5921 51.9681 21.4102 50.5101 21.4102C49.0521 21.4102 47.8701 22.5921 47.8701 24.0502C47.8701 25.5082 49.0521 26.6902 50.5101 26.6902Z" fill="#3B82F6"/>
<path d="M27.5935 26.3892C28.942 25.8348 29.5858 24.2922 29.0313 22.9437C28.4769 21.5952 26.9342 20.9514 25.5857 21.5059C24.2372 22.0603 23.5935 23.603 24.1479 24.9515C24.7024 26.3 26.245 26.9437 27.5935 26.3892Z" fill="#3B82F6"/>
<path d="M2.65004 26.6604C3.17459 26.6604 3.68731 26.5047 4.12331 26.213C4.55931 25.9214 4.89899 25.507 5.09926 25.0222C5.29954 24.5374 5.3515 24.004 5.24843 23.4897C5.14537 22.9754 4.89189 22.5032 4.52028 22.133C4.14867 21.7628 3.67561 21.5112 3.16091 21.4101C2.6462 21.3089 2.11309 21.3629 1.62905 21.565C1.145 21.7671 0.731771 22.1083 0.441791 22.5454C0.151812 22.9825 -0.00196055 23.4958 1.88721e-05 24.0203C1.63788e-05 24.3679 0.0686259 24.712 0.201923 25.033C0.33522 25.3539 0.530667 25.6454 0.776874 25.8906C1.02308 26.1359 1.31528 26.3302 1.63674 26.4623C1.95819 26.5944 2.30251 26.6617 2.65004 26.6604Z" fill="#3B82F6"/>
<path d="M146.25 5.28C147.708 5.28 148.89 4.09803 148.89 2.64C148.89 1.18197 147.708 0 146.25 0C144.792 0 143.61 1.18197 143.61 2.64C143.61 4.09803 144.792 5.28 146.25 5.28Z" fill="#3B82F6"/>
<path d="M122.31 5.28C123.768 5.28 124.95 4.09803 124.95 2.64C124.95 1.18197 123.768 0 122.31 0C120.852 0 119.67 1.18197 119.67 2.64C119.67 4.09803 120.852 5.28 122.31 5.28Z" fill="#3B82F6"/>
<path d="M98.3798 5.29024C98.9043 5.29222 99.4176 5.13851 99.8547 4.84853C100.292 4.55855 100.633 4.14532 100.835 3.66127C101.037 3.17723 101.091 2.64412 100.99 2.12941C100.889 1.61471 100.637 1.14159 100.267 0.769978C99.897 0.398368 99.4248 0.144953 98.9105 0.0418894C98.3962 -0.0611745 97.8629 -0.00927669 97.3781 0.190998C96.8932 0.391273 96.4788 0.730946 96.1871 1.16695C95.8955 1.60295 95.7397 2.11567 95.7397 2.64022C95.7397 3.34131 96.0176 4.01383 96.5125 4.51052C97.0073 5.0072 97.6787 5.2876 98.3798 5.29024Z" fill="#3B82F6"/>
<path d="M74.4498 5.29023C74.9739 5.29023 75.4863 5.13483 75.9221 4.84364C76.3579 4.55245 76.6975 4.13859 76.8981 3.65437C77.0986 3.17015 77.1511 2.63729 77.0488 2.12324C76.9466 1.60919 76.6942 1.13698 76.3236 0.76637C75.953 0.395761 75.4808 0.143401 74.9668 0.04115C74.4527 -0.0611008 73.9199 -0.00860433 73.4357 0.191968C72.9514 0.39254 72.5376 0.732191 72.2465 1.16798C71.9553 1.60377 71.7998 2.11609 71.7998 2.64021C71.7998 2.98821 71.8683 3.33286 72.0015 3.65437C72.1346 3.97588 72.3299 4.26798 72.5759 4.51405C72.822 4.76013 73.1142 4.95534 73.4357 5.08851C73.7572 5.22169 74.1018 5.29023 74.4498 5.29023Z" fill="#3B82F6"/>
<path d="M50.5101 5.28C51.9681 5.28 53.1501 4.09803 53.1501 2.64C53.1501 1.18197 51.9681 0 50.5101 0C49.0521 0 47.8701 1.18197 47.8701 2.64C47.8701 4.09803 49.0521 5.28 50.5101 5.28Z" fill="#3B82F6"/>
<path d="M27.592 4.97708C28.9406 4.42265 29.5843 2.87999 29.0298 1.53149C28.4754 0.182988 26.9328 -0.460681 25.5843 0.0937553C24.2358 0.648191 23.592 2.19079 24.1465 3.53929C24.7009 4.88779 26.2435 5.53152 27.592 4.97708Z" fill="#3B82F6"/>
<path d="M2.65002 5.29023C3.17414 5.29023 3.68652 5.13483 4.12231 4.84364C4.5581 4.55245 4.89769 4.13859 5.09827 3.65437C5.29884 3.17015 5.3514 2.63729 5.24915 2.12324C5.14689 1.60919 4.89454 1.13698 4.52393 0.76637C4.15332 0.395761 3.68104 0.143401 3.16699 0.04115C2.65294 -0.0611008 2.12021 -0.00860433 1.63599 0.191968C1.15176 0.39254 0.737841 0.732191 0.446655 1.16798C0.15547 1.60377 0 2.11609 0 2.64021C0 3.34303 0.279274 4.01708 0.776245 4.51405C1.27322 5.01102 1.9472 5.29023 2.65002 5.29023Z" fill="#3B82F6"/>
</g>
<defs>
<clipPath id="clip0_2485_16386">
<rect width="148.89" height="90.91" fill="white"/>
</clipPath>
</defs>
</svg>
